<svg xmlns="http://www.w3.org/2000/svg" width="118" height="28" viewBox="0 0 118 28">
    <g fill="none" fill-rule="evenodd">
        <ellipse cx="14.041" cy="14" rx="14.041" ry="14"/>
        <path fill="#FFFFFF" d="M14.016 19.158c-2.898 0-5.247-2.342-5.247-5.232 0-2.889 2.35-5.231 5.247-5.231 2.898 0 5.247 2.342 5.247 5.231 0 2.89-2.35 5.232-5.247 5.232zm0-19.158c7.71 0 13.992 6.239 13.942 13.95 0 5.797-3.497 10.734-8.572 12.871-.27.123-.64.197-1.01.197a2.609 2.609 0 0 1-2.61-2.604c0-1.08.664-2.014 1.6-2.407a8.7 8.7 0 0 0 5.37-8.032c0-4.814-3.916-8.719-8.744-8.719-4.829 0-8.745 3.905-8.745 8.72 0 3.61 2.217 6.705 5.37 8.031a2.618 2.618 0 0 1 1.601 2.407 2.609 2.609 0 0 1-2.611 2.604c-.345 0-.74-.074-1.01-.197C3.523 24.66.025 19.723.025 13.951.025 6.239 6.306 0 14.016 0z"/>
        <ellipse cx="14.041" cy="14" rx="14.041" ry="14"/>
        <path fill="#FFFFFF" d="M55.1 12.694c0-4.56 3.61-8.085 8.652-8.085 5.068 0 8.652 3.525 8.652 8.085 0 4.56-3.584 8.084-8.652 8.084-5.018 0-8.652-3.524-8.652-8.084zm13.028 0c0-2.49-1.706-4.338-4.376-4.338-2.67 0-4.375 1.848-4.375 4.338s1.705 4.338 4.375 4.338 4.376-1.874 4.376-4.338zm2.818 11.387h2.323c1.236 0 1.681-.468 1.681-1.553V4.634h4.277v17.968c0 3.771-1.533 5.398-5.612 5.398h-2.67v-3.919zM48.426 4.609h4.128v15.726c0 4.362-3.337 7.64-8.231 7.64-3.214 0-6.032-1.133-7.91-3.105l2.793-2.687c1.21 1.183 2.62 1.849 5.018 1.849 2.397 0 4.202-1.528 4.202-3.624v-1.552h-.05c-1.062 1.183-2.842 1.848-4.968 1.848-4.746 0-8.306-3.426-8.306-8.109 0-4.51 3.46-7.986 8.158-7.986 2.175 0 4.004.641 5.117 1.8h.049v-1.8zm-.198 8.923h.025v-1.8c0-1.774-1.953-3.352-4.202-3.352-2.843 0-4.672 1.726-4.672 4.215 0 2.711 1.705 4.338 4.474 4.338 2.447 0 4.375-1.503 4.375-3.401zm42.37 3.77c1.73 0 2.892-.443 4.178-1.626l2.892 2.021c-1.236 1.504-3.61 3.081-6.897 3.081-5.389 0-9.048-3.204-9.048-8.06 0-4.707 3.461-8.109 8.331-8.109 5.142 0 8.33 3.648 8.33 8.233v1.207H85.952c.074 1.602 2.076 3.254 4.647 3.254zm-.445-9.242c-2.299 0-3.906 1.183-4.153 2.982h8.232c-.198-1.799-1.805-2.982-4.08-2.982zM100.93 0h4.128l.025 11.042h.05l6.92-6.482h5.538l-7.169 6.778 7.144 9.416h-4.944l-4.894-6.803h-.05l-2.595 2.464v4.363h-4.129V0h-.024z"/>
    </g>
</svg>